<svg width="32" height="32" viewBox="0 0 32 32" fill="none" xmlns="http://www.w3.org/2000/svg">
<path d="M7.24668 0.000208676C6.00512 0.0298418 4.98873 0.987144 4.98873 2.13243V2.62688H3.2016C1.44208 2.62688 0 3.94987 0 5.56419V29.0535C0 30.6678 1.44208 32 3.2016 32H28.7964C30.5559 32 32 30.6678 32 29.0535V5.56419C32 3.94987 30.5559 2.62688 28.7964 2.62688H27.0173V2.13243C27.0173 0.968968 25.9615 0.000208676 24.6932 0.000208676H23.3589C22.0905 0.000208676 21.0428 0.968968 21.0428 2.13243V2.62688H10.9632V2.13243C10.9632 0.968968 9.90745 0.000208676 8.63911 0.000208676H7.30678C7.28697 0.000208676 7.26639 -0.000260845 7.24668 0.000208676ZM7.30678 1.88244H8.63911C8.80583 1.88244 8.91159 1.97869 8.91159 2.13243V4.99438C8.91159 5.14814 8.8058 5.24621 8.63911 5.24621H7.30678C7.14008 5.24621 7.03431 5.14811 7.03431 4.99438V2.13243C7.03431 1.97866 7.14011 1.88244 7.30678 1.88244ZM23.3589 1.88244H24.6932C24.8599 1.88244 24.9657 1.97869 24.9657 2.13243V4.99438C24.9657 5.14814 24.8599 5.24621 24.6932 5.24621H23.3589C23.1922 5.24621 23.0864 5.14811 23.0864 4.99438V3.66174C23.0909 3.62942 23.0936 3.5969 23.0944 3.56432C23.0936 3.53173 23.0909 3.49922 23.0864 3.46689V2.13242C23.0864 1.97865 23.1922 1.88244 23.3589 1.88244ZM3.2016 4.50176H4.98873V4.99438C4.98873 6.15783 6.03846 7.12843 7.30678 7.12843H8.63911C9.90745 7.12843 10.9632 6.15783 10.9632 4.99438V4.50176H21.0428V4.99438C21.0428 6.15783 22.0905 7.12843 23.3589 7.12843H24.6932C25.9615 7.12843 27.0173 6.15783 27.0173 4.99438V4.50176H28.7964C29.4543 4.50176 29.9484 4.95957 29.9484 5.56419V11.0179H23.3589H2.05159V5.56419C2.05159 4.95957 2.54372 4.50176 3.2016 4.50176ZM2.05159 11.0179H29.9484V29.0535C29.9484 29.6581 29.4543 30.1159 28.7964 30.1159H3.2016C2.54372 30.1159 2.05159 29.6581 2.05159 29.0535V11.0179ZM16 13.2824C11.6274 13.2824 8.06411 16.559 8.06411 20.5706C8.06411 24.5822 11.6274 27.8514 16 27.8514C20.3726 27.8514 23.9419 24.5822 23.9419 20.5706C23.9419 16.559 20.3726 13.2824 16 13.2824ZM16 15.1665C19.2638 15.1665 21.8903 17.5762 21.8903 20.5706C21.8903 23.565 19.2638 25.9691 16 25.9691C12.7362 25.9691 10.1157 23.565 10.1157 20.5706C10.1157 17.5762 12.7362 15.1665 16 15.1665ZM18.8029 17.7289C18.5555 17.7464 18.3235 17.8457 18.1498 18.0083L14.84 21.1055L13.8643 20.1478C13.6793 19.9657 13.4233 19.8583 13.1522 19.849C12.8811 19.8397 12.617 19.9293 12.4177 20.0982C12.3184 20.1825 12.2382 20.2839 12.1818 20.3967C12.1254 20.5095 12.0939 20.6315 12.089 20.7555C12.0842 20.8795 12.1061 21.0032 12.1536 21.1194C12.2011 21.2357 12.2731 21.3421 12.3656 21.4327L14.0686 23.1072C14.1629 23.2007 14.2769 23.2756 14.4037 23.3274C14.5305 23.3793 14.6674 23.407 14.8062 23.4089C14.945 23.4108 15.0828 23.3869 15.2112 23.3385C15.3396 23.2901 15.4559 23.2183 15.5532 23.1275L19.6183 19.3281C19.8076 19.1501 19.9123 18.9105 19.9097 18.6619C19.9071 18.4132 19.7973 18.1756 19.6043 18.001C19.4999 17.9054 19.3742 17.8317 19.2359 17.7848C19.0976 17.7378 18.9499 17.7187 18.8029 17.7289Z" fill="#7E7E7E"/>
</svg>
