<svg width="30" height="32" viewBox="0 0 30 32" fill="none" xmlns="http://www.w3.org/2000/svg">
<path d="M6.79376 0.000208676C5.6298 0.0298418 4.67693 0.987144 4.67693 2.13243V2.62688H3.0015C1.35195 2.62688 0 3.94987 0 5.56419V29.0535C0 30.6678 1.35195 32 3.0015 32H26.9966C28.6462 32 30 30.6678 30 29.0535V5.56419C30 3.94987 28.6462 2.62688 26.9966 2.62688H25.3287V2.13243C25.3287 0.968968 24.3389 0.000208676 23.1499 0.000208676H21.8989C20.7099 0.000208676 19.7276 0.968968 19.7276 2.13243V2.62688H10.278V2.13243C10.278 0.968968 9.28823 0.000208676 8.09917 0.000208676H6.85011C6.83153 0.000208676 6.81224 -0.000260845 6.79376 0.000208676ZM6.85011 1.88244H8.09917C8.25546 1.88244 8.35462 1.97869 8.35462 2.13243V4.99438C8.35462 5.14814 8.25543 5.24621 8.09917 5.24621H6.85011C6.69383 5.24621 6.59466 5.14811 6.59466 4.99438V2.13243C6.59466 1.97866 6.69385 1.88244 6.85011 1.88244ZM21.8989 1.88244H23.1499C23.3062 1.88244 23.4053 1.97869 23.4053 2.13243V4.99438C23.4053 5.14814 23.3061 5.24621 23.1499 5.24621H21.8989C21.7427 5.24621 21.6435 5.14811 21.6435 4.99438V3.66174C21.6477 3.62942 21.6502 3.5969 21.651 3.56432C21.6502 3.53173 21.6477 3.49922 21.6435 3.46689V2.13242C21.6435 1.97865 21.7427 1.88244 21.8989 1.88244ZM3.0015 4.50176H4.67693V4.99438C4.67693 6.15783 5.66105 7.12843 6.85011 7.12843H8.09917C9.28823 7.12843 10.278 6.15783 10.278 4.99438V4.50176H19.7276V4.99438C19.7276 6.15783 20.7099 7.12843 21.8989 7.12843H23.1499C24.3389 7.12843 25.3287 6.15783 25.3287 4.99438V4.50176H26.9966C27.6134 4.50176 28.0766 4.95957 28.0766 5.56419V11.0179H21.8989H11.9112H1.92337V5.56419C1.92337 4.95957 2.38473 4.50176 3.0015 4.50176ZM1.92337 11.0179H28.0766V29.0535C28.0766 29.6581 27.6134 30.1159 26.9966 30.1159H3.0015C2.38473 30.1159 1.92337 29.6581 1.92337 29.0535V11.0179ZM15 13.2824C10.9007 13.2824 7.56011 16.559 7.56011 20.5706C7.56011 24.5822 10.9007 27.8514 15 27.8514C19.0993 27.8514 22.4455 24.5822 22.4455 20.5706C22.4455 16.559 19.0993 13.2824 15 13.2824ZM15 15.1665C18.0598 15.1665 20.5222 17.5762 20.5222 20.5706C20.5222 23.565 18.0598 25.9691 15 25.9691C11.9402 25.9691 9.48347 23.565 9.48347 20.5706C9.48347 17.5762 11.9402 15.1665 15 15.1665ZM17.6277 17.7289C17.3958 17.7465 17.1783 17.8457 17.0154 18.0083L13.9125 21.1055L12.9977 20.1478C12.8243 19.9657 12.5843 19.8583 12.3302 19.849C12.076 19.8397 11.8284 19.9293 11.6416 20.0982C11.5485 20.1825 11.4733 20.2839 11.4205 20.3967C11.3676 20.5095 11.338 20.6315 11.3335 20.7555C11.3289 20.8795 11.3495 21.0032 11.394 21.1194C11.4385 21.2357 11.5061 21.3421 11.5928 21.4327L13.1893 23.1072C13.2777 23.2007 13.3846 23.2756 13.5035 23.3274C13.6223 23.3793 13.7507 23.407 13.8808 23.4089C14.0109 23.4108 14.1401 23.3869 14.2605 23.3385C14.3808 23.2901 14.4899 23.2183 14.5811 23.1275L18.3922 19.3281C18.5696 19.1501 18.6678 18.9105 18.6654 18.6619C18.6629 18.4132 18.5599 18.1756 18.379 18.001C18.2811 17.9054 18.1634 17.8317 18.0337 17.7848C17.904 17.7378 17.7656 17.7187 17.6277 17.7289Z" fill="white"/>
</svg>
