<svg width="32" height="32" viewBox="0 0 32 32" fill="none" xmlns="http://www.w3.org/2000/svg">
<path d="M28.0001 32H22.6668C21.1934 32 20.0001 30.9961 20.0001 29.7566V25.27C20.0001 24.9727 19.8601 24.6867 19.6101 24.4764C19.3601 24.2661 19.0201 24.1483 18.6668 24.1483H13.3334C12.5967 24.1483 12.0001 24.6502 12.0001 25.27V29.7567C12.0001 30.3511 11.7184 30.9218 11.2184 31.3424C10.7184 31.7631 10.0401 32 9.33338 32H4.00002C1.79167 32 0 30.4928 0 28.635V10.7095C0.00166657 9.63265 0.613337 8.62175 1.64835 7.98802L13.6484 0.645299V0.646701C15.0484 -0.215567 16.9518 -0.215567 18.3516 0.646701L30.3516 7.98942V7.98802C31.3867 8.62315 31.9983 9.63405 32 10.7095V28.635C32 30.4928 30.2085 32 28.0001 32ZM13.3334 21.905H18.6667C20.8751 21.905 22.6668 23.4122 22.6668 25.27V29.7566H28.0001C28.3535 29.7566 28.6935 29.6389 28.9435 29.4286C29.1935 29.2182 29.3335 28.9322 29.3335 28.635V10.7095C29.3335 10.3505 29.1301 10.014 28.7834 9.80232L16.7834 2.4596C16.3167 2.17358 15.6834 2.17358 15.2167 2.4596L3.21662 9.80232C2.86995 10.014 2.6666 10.3505 2.6666 10.7095V28.635C2.6666 28.9322 2.8066 29.2183 3.0566 29.4286C3.30661 29.6389 3.6466 29.7566 3.99993 29.7566H9.33329V25.27C9.33329 23.4122 11.125 21.905 13.3334 21.905Z" fill="#ECECEC"/>
</svg>
