<svg width="32" height="35" viewBox="0 0 32 35" fill="none" xmlns="http://www.w3.org/2000/svg">
<path d="M30.7037 7.50346L32 0.6604H24.8324L26.1287 7.50346H30.7037ZM31.1866 1.37932L30.1445 6.78454H26.7133L25.6966 1.37932H31.1866Z" fill="black"/>
<path d="M26.942 11.6041C27.6537 11.6041 28.2383 10.9917 28.2383 10.2462C28.2383 9.50063 27.6537 8.88821 26.942 8.88821H7.2184L3.91419 5.42674C3.40585 4.89421 2.56709 4.89421 2.05875 5.42674C1.55041 5.95928 1.55041 6.83796 2.05875 7.37049L5.76963 11.2047C6.0238 11.471 6.35422 11.6041 6.68464 11.6041H11.9205V18.4472H17.7919V11.6041H26.942Z" fill="black"/>
<path d="M14.386 7.84969C15.6494 7.84969 16.6736 6.77678 16.6736 5.45329C16.6736 4.12979 15.6494 3.05688 14.386 3.05688C13.1227 3.05688 12.0985 4.12979 12.0985 5.45329C12.0985 6.77678 13.1227 7.84969 14.386 7.84969Z" fill="black"/>
<path d="M6.20172 5.45319C6.78631 5.45319 7.3709 5.21355 7.82841 4.76089C8.718 3.82896 8.718 2.31124 7.82841 1.37931C7.3709 0.900025 6.78631 0.687012 6.20172 0.687012C5.61713 0.687012 5.03254 0.926652 4.57503 1.37931C3.68544 2.31124 3.68544 3.82896 4.57503 4.76089C5.03254 5.21355 5.61713 5.45319 6.20172 5.45319ZM5.08337 1.85859C5.38838 1.53907 5.79505 1.37931 6.20172 1.37931C6.63381 1.37931 7.04048 1.53907 7.32007 1.85859C7.62507 2.17811 7.77758 2.60413 7.77758 3.03016C7.77758 3.45619 7.62507 3.90884 7.32007 4.20173C7.01506 4.52125 6.60839 4.68101 6.20172 4.68101C5.76963 4.68101 5.36296 4.52125 5.08337 4.20173C4.77837 3.88221 4.62587 3.45619 4.62587 3.03016C4.62587 2.60413 4.77837 2.17811 5.08337 1.85859Z" fill="black"/>
<path d="M11.8697 19.8315L0.381255 31.8668C0.152502 32.1064 0 32.4526 0 32.8254C0 33.5709 0.584591 34.1833 1.29627 34.1833C1.6521 34.1833 1.98253 34.0236 2.21128 33.7839L7.65052 28.0858H16.4702C17.1819 28.0858 17.7665 27.4734 17.7665 26.7279V19.8315H11.8697ZM15.1994 20.2309V25.3699H10.2939L15.1994 20.2309Z" fill="black"/>
</svg>
