<svg width="32" height="34" viewBox="0 0 32 34" fill="none" xmlns="http://www.w3.org/2000/svg">
<path d="M15.1229 9.97824C16.2267 9.97824 17.1215 8.96717 17.1215 7.71995C17.1215 6.47274 16.2267 5.46167 15.1229 5.46167C14.0191 5.46167 13.1243 6.47274 13.1243 7.71995C13.1243 8.96717 14.0191 9.97824 15.1229 9.97824Z" fill="black"/>
<path d="M14.2789 22.2483C15.3827 22.2483 16.2775 21.2372 16.2775 19.99C16.2775 18.7428 15.3827 17.7317 14.2789 17.7317C13.1751 17.7317 12.2803 18.7428 12.2803 19.99C12.2803 21.2372 13.1751 22.2483 14.2789 22.2483Z" fill="black"/>
<path d="M16.8994 14.5953L11.592 8.59832C10.5926 7.46918 8.94934 7.46918 7.95004 8.59832L3.2644 13.8927L6.90632 18.0078L11.7696 12.4876L17.6322 19.0868C18.143 19.6639 18.787 19.9399 19.4532 19.9399H28.7134L23.9833 14.5953H16.8994Z" fill="black"/>
<path d="M31.9778 3.95622L28.3137 8.09641C28.0916 8.34733 27.9806 8.67352 27.9806 8.99972V13.6167L23.6947 8.77389V1.59757C23.6947 0.894988 23.1839 0.317871 22.5621 0.317871C21.9403 0.317871 21.4296 0.894988 21.4296 1.59757V9.35101C21.4296 9.7023 21.5628 10.0285 21.7627 10.2543L29.535 19.0365C30.0458 18.4594 30.2901 17.7318 30.2901 16.979V9.55175L32 7.61966L31.9778 3.95622Z" fill="black"/>
<path d="M10.5038 23.9044L2.46495 14.821C1.9542 15.3982 1.70992 16.1258 1.70992 16.8786V24.2557H1.73213L0 26.2128V29.8763L3.66412 25.7361C3.88619 25.4852 3.99722 25.159 3.99722 24.8328V20.1907L8.57182 25.3597V32.5611C8.57182 33.2637 9.08258 33.8408 9.70437 33.8408C10.3262 33.8408 10.8369 33.2637 10.8369 32.5611V24.8077C10.8369 24.4564 10.7259 24.1553 10.5038 23.9044Z" fill="black"/>
</svg>
