<svg width="32" height="34" viewBox="0 0 32 34" fill="none" xmlns="http://www.w3.org/2000/svg">
<path d="M17.6 18.1564C18.7045 18.1564 19.6 14.5337 19.6 10.0649C19.6 5.59608 18.7045 1.97339 17.6 1.97339C16.4954 1.97339 15.6 5.59608 15.6 10.0649C15.6 14.5337 16.4954 18.1564 17.6 18.1564Z" fill="black"/>
<path d="M30.5778 29.4847C30.1556 28.316 29.6889 26.9674 28.8 26.9674C27.9111 26.9674 27.4444 28.316 27.0222 29.4847C26.6889 30.4737 26.4 31.2828 25.8667 31.5526C25.8889 31.4627 25.9111 31.4627 25.9111 31.3728C26.3556 29.5746 26.3556 26.6078 25.9111 24.8096C25.6889 23.9106 25.4 23.4611 25.1111 23.4611H16.4667L11.1333 1.79382C10.7556 0.265426 10.1333 -0.0042894 9.66667 1.25439L5.91111 11.7733C5.4 13.2118 5.26667 16.0888 5.62222 18.2465C5.97778 20.3144 6.68889 20.8538 7.22222 19.4153L10.2 11.0541L11.9111 17.9768L8.06667 28.7655C7.97778 29.0352 7.91111 29.215 7.82222 29.4847C7.44444 30.5636 7.11111 31.5526 6.4 31.5526C5.68889 31.5526 5.35556 30.5636 4.97778 29.4847C4.55556 28.316 4.08889 26.9674 3.2 26.9674C2.31111 26.9674 1.84444 28.316 1.42222 29.4847C1.04444 30.5636 0.711111 31.5526 0 31.5526V33.98C0.888889 33.98 1.35556 32.6314 1.77778 31.4627C2.15556 30.3838 2.48889 29.3948 3.2 29.3948C3.91111 29.3948 4.24444 30.3838 4.62222 31.4627C5.04444 32.6314 5.51111 33.98 6.4 33.98C7.28889 33.98 7.75556 32.6314 8.17778 31.4627C8.55556 30.3838 8.88889 29.3948 9.6 29.3948C10.3111 29.3948 10.6444 30.3838 11.0222 31.4627C11.4444 32.6314 11.9111 33.98 12.8 33.98C13.6889 33.98 14.1556 32.6314 14.5778 31.4627C14.9556 30.3838 15.2889 29.3948 16 29.3948C16.7111 29.3948 17.0444 30.3838 17.4222 31.4627C17.8444 32.6314 18.3111 33.98 19.2 33.98C20.0889 33.98 20.5556 32.6314 20.9778 31.4627C21.3556 30.3838 21.6889 29.3948 22.4 29.3948C23.1111 29.3948 23.4444 30.3838 23.8222 31.4627C24.2444 32.6314 24.7111 33.98 25.6 33.98C26.4889 33.98 26.9556 32.6314 27.3778 31.4627C27.7556 30.3838 28.0889 29.3948 28.8 29.3948C29.5111 29.3948 29.8444 30.3838 30.2222 31.4627C30.6444 32.6314 31.1111 33.98 32 33.98V31.5526C31.2889 31.5526 30.9556 30.5636 30.5778 29.4847Z" fill="black"/>
</svg>
