<svg width="32" height="35" viewBox="0 0 32 35" fill="none" xmlns="http://www.w3.org/2000/svg">
<path d="M5.3536 24.807L11.6783 17.3704L9.88548 15.2332L3.56076 22.699C3.06275 23.2845 3.06275 24.2507 3.56076 24.8362C4.05877 25.4218 4.85559 25.4218 5.3536 24.807Z" fill="black"/>
<path d="M12.1514 17.8975L0.373507 31.7458C-0.124502 32.3314 -0.124502 33.2975 0.373507 33.8831C0.871516 34.4686 1.69323 34.4686 2.19124 33.8831L13.9443 20.064L12.1514 17.8975Z" fill="black"/>
<path d="M18.8995 6.06931C19.522 6.06931 20.0698 5.77653 20.4931 5.30808C20.8915 4.83964 21.1405 4.16625 21.1405 3.43431C21.1405 2.70237 20.8915 2.05826 20.4931 1.56054C20.0947 1.09209 19.522 0.799316 18.8995 0.799316C18.277 0.799316 17.7292 1.09209 17.3059 1.56054C16.9075 2.02898 16.6584 2.70237 16.6584 3.43431C16.6584 4.16625 16.9075 4.81036 17.3059 5.30808C17.7043 5.77653 18.277 6.06931 18.8995 6.06931Z" fill="black"/>
<path d="M30.752 7.21118H10.4083C10.0846 7.21118 9.76091 7.35757 9.51191 7.65035L5.90134 11.8956C5.40333 12.4812 5.40333 13.4473 5.90134 14.0329C6.39935 14.6184 7.22106 14.6184 7.71907 14.0329L10.9561 10.2268H14.1683L10.7818 14.1793L14.8406 18.9808L22.2858 10.2268H30.7271C31.4243 10.2268 31.997 9.5534 31.997 8.73362C32.0468 7.88457 31.4492 7.21118 30.752 7.21118Z" fill="black"/>
<path d="M12.7989 29.0815C13.8447 29.0815 14.6913 30.077 14.6913 31.3066C14.6913 32.5363 13.8447 33.5317 12.7989 33.5317C11.7531 33.5317 10.9064 32.5363 10.9064 31.3066C10.9064 30.077 11.778 29.0815 12.7989 29.0815ZM12.7989 28.291C11.3796 28.291 10.2341 29.6378 10.2341 31.3066C10.2341 32.9755 11.3796 34.3222 12.7989 34.3222C14.2182 34.3222 15.3636 32.9755 15.3636 31.3066C15.3636 29.6378 14.2182 28.291 12.7989 28.291Z" fill="black"/>
</svg>
