<svg width="32" height="18" viewBox="0 0 32 18" fill="none" xmlns="http://www.w3.org/2000/svg">
<path d="M24.2888 4C25.3934 4 26.2888 3.10457 26.2888 2C26.2888 0.89543 25.3934 0 24.2888 0C23.1842 0 22.2888 0.89543 22.2888 2C22.2888 3.10457 23.1842 4 24.2888 4Z" fill="black"/>
<path d="M7.15552 4C8.26009 4 9.15552 3.10457 9.15552 2C9.15552 0.89543 8.26009 0 7.15552 0C6.05095 0 5.15552 0.89543 5.15552 2C5.15552 3.10457 6.05095 4 7.15552 4Z" fill="black"/>
<path d="M30.5778 16.0445C30.1556 15.7556 29.6889 15.4223 28.8 15.4223C27.9111 15.4223 27.4444 15.7556 27.0222 16.0445C26.6444 16.3111 26.3111 16.5556 25.6 16.5556C24.8889 16.5556 24.5556 16.3111 24.1778 16.0445C24 15.9111 23.8222 15.7778 23.6 15.6889L27.0667 12.2223H32V11.6223H27.6667L32 7.28892V4.8667H20.8C20.2444 4.8667 19.7556 5.08892 19.4 5.44448L13.2222 11.6223H10.4889L14.9556 7.15559H15.6667C16.2889 7.15559 16.8 6.64448 16.8 6.02225C16.8 5.40003 16.2889 4.88892 15.6667 4.88892H3.62222C3.06667 4.88892 2.57778 5.11114 2.22222 5.4667L0 7.68892V11.7556V12.2223H9.02222L5.11111 16.1334C5.06667 16.1111 5.02222 16.0667 4.97778 16.0445C4.55556 15.7556 4.08889 15.4223 3.2 15.4223C2.31111 15.4223 1.84444 15.7556 1.42222 16.0445C1.04444 16.3111 0.711111 16.5556 0 16.5556V17.1556C0.888889 17.1556 1.35556 16.8223 1.77778 16.5334C2.15556 16.2667 2.48889 16.0223 3.2 16.0223C3.91111 16.0223 4.24444 16.2667 4.62222 16.5334C5.04444 16.8223 5.51111 17.1556 6.4 17.1556C7.28889 17.1556 7.75556 16.8223 8.17778 16.5334C8.55556 16.2667 8.88889 16.0223 9.6 16.0223C10.3111 16.0223 10.6444 16.2667 11.0222 16.5334C11.4444 16.8223 11.9111 17.1556 12.8 17.1556C13.6889 17.1556 14.1556 16.8223 14.5778 16.5334C14.9556 16.2667 15.2889 16.0223 16 16.0223C16.7111 16.0223 17.0444 16.2667 17.4222 16.5334C17.8444 16.8223 18.3111 17.1556 19.2 17.1556C20.0889 17.1556 20.5556 16.8223 20.9778 16.5334C21.3556 16.2667 21.6889 16.0223 22.4 16.0223C23.1111 16.0223 23.4444 16.2667 23.8222 16.5334C24.2444 16.8223 24.7111 17.1556 25.6 17.1556C26.4889 17.1556 26.9556 16.8223 27.3778 16.5334C27.7556 16.2667 28.0889 16.0223 28.8 16.0223C29.5111 16.0223 29.8444 16.2667 30.2222 16.5334C30.6444 16.8223 31.1111 17.1556 32 17.1556V16.5556C31.2889 16.5778 30.9556 16.3334 30.5778 16.0445ZM24.5778 7.13337H31.2889L28.4222 10L26.4889 8.0667C26.2444 7.82226 25.9778 7.68892 25.6444 7.68892C25.3111 7.68892 25.0444 7.82226 24.8 8.0667L21.2667 11.6223H20.1111L24.5778 7.13337ZM26.7778 11.6223H24.4889L25.6222 10.4889L26.7778 11.6223ZM20.6222 16.0445C20.2444 16.3111 19.9111 16.5556 19.2 16.5556C18.4889 16.5556 18.1556 16.3111 17.7778 16.0445C17.3556 15.7556 16.8889 15.4223 16 15.4223C15.1111 15.4223 14.6444 15.7556 14.2222 16.0445C13.8444 16.3111 13.5111 16.5556 12.8 16.5556C12.0889 16.5556 11.7556 16.3111 11.3778 16.0445C10.9556 15.7556 10.4889 15.4223 9.6 15.4223C8.71111 15.4223 8.24444 15.7556 7.82222 16.0445C7.44444 16.3111 7.11111 16.5556 6.4 16.5556C6.08889 16.5556 5.84444 16.5111 5.64444 16.4445L9.86667 12.2223H26.2222L22.9556 15.4889C22.8 15.4667 22.6 15.4445 22.4 15.4445C21.5111 15.4223 21.0444 15.7556 20.6222 16.0445ZM2.93333 11.6223L7.4 7.15559H14.1111L11.2222 10.0223L9.28889 8.08892C9.04444 7.84448 8.77778 7.71114 8.44444 7.71114C8.11111 7.71114 7.84444 7.84448 7.6 8.08892L4.08889 11.6223H2.93333ZM9.6 11.6223H7.31111L8.44444 10.4889L9.6 11.6223Z" fill="black"/>
</svg>
