<svg width="32" height="34" viewBox="0 0 32 34" fill="none" xmlns="http://www.w3.org/2000/svg">
<path d="M22.8377 23.8792C22.1035 23.8792 21.5211 24.505 21.5211 25.2941C21.5211 26.0832 22.1035 26.709 22.8377 26.709C23.572 26.709 24.1543 26.0832 24.1543 25.2941C24.1543 24.505 23.572 23.8792 22.8377 23.8792ZM22.8377 25.9471C22.5086 25.9471 22.23 25.6478 22.23 25.2941C22.23 24.9404 22.5086 24.641 22.8377 24.641C23.1668 24.641 23.4454 24.9404 23.4454 25.2941C23.4454 25.6478 23.1668 25.9471 22.8377 25.9471Z" fill="black"/>
<path d="M5.44359 24.8585L11.8999 17.9199L10.0516 15.9336L3.62063 22.8722C3.11425 23.4164 3.11425 24.3143 3.62063 24.8585C4.12701 25.4027 4.93721 25.4027 5.44359 24.8585Z" fill="black"/>
<path d="M12.3556 18.437L0.379784 31.3074C-0.126595 31.8516 -0.126595 32.7496 0.379784 33.2938C0.886163 33.838 1.72169 33.838 2.22807 33.2938L14.2039 20.4234L12.3556 18.437Z" fill="black"/>
<path d="M22.7617 9.18568C24.0202 9.18568 25.0404 8.08926 25.0404 6.73676C25.0404 5.38426 24.0202 4.28784 22.7617 4.28784C21.5032 4.28784 20.483 5.38426 20.483 6.73676C20.483 8.08926 21.5032 9.18568 22.7617 9.18568Z" fill="black"/>
<path d="M31.2183 4.42375C30.7119 3.66186 30.0283 3.30813 29.3447 3.30813C28.6611 3.30813 28.0028 3.68907 27.4711 4.42375C26.433 5.92031 26.433 8.36923 27.4711 9.86579C27.9015 10.4916 28.4332 10.8454 28.9903 10.9542V13.8657H24.6607L12.2544 0.587108C11.7481 0.042904 10.9125 0.042904 10.4062 0.587108C9.89977 1.13131 9.89977 2.02925 10.4062 2.57345L16.508 9.02227L10.9885 14.9541L15.1408 19.4166L20.6603 13.4847L23.2429 16.2602C23.496 16.5323 23.8252 16.6683 24.1543 16.6683H29.37C29.6992 16.6683 30.0283 16.5323 30.3068 16.2602C30.8132 15.716 30.8132 14.818 30.3068 14.2738C30.1296 14.0834 29.9271 13.9745 29.7245 13.9201V10.9542C30.2815 10.8454 30.8132 10.4916 31.2436 9.86579C32.2564 8.36923 32.2564 5.92031 31.2183 4.42375ZM30.6613 9.43043C30.3068 9.97463 29.8258 10.2467 29.3447 10.2467C28.8637 10.2467 28.4079 9.94742 28.0281 9.43043C27.623 8.8318 27.3952 8.0155 27.3952 7.14477C27.3952 6.27404 27.623 5.45774 28.0281 4.85911C28.3826 4.31491 28.8637 4.0428 29.3447 4.0428C29.8258 4.0428 30.2815 4.34212 30.6613 4.85911C31.0664 5.45774 31.2943 6.27404 31.2943 7.14477C31.2943 8.0155 31.0664 8.8318 30.6613 9.43043Z" fill="black"/>
</svg>
