<svg width="32" height="34" viewBox="0 0 32 34" fill="none" xmlns="http://www.w3.org/2000/svg">
<path d="M17.3769 6.00684C18.5568 6.00684 19.5134 4.75611 19.5134 3.21326C19.5134 1.67041 18.5568 0.419678 17.3769 0.419678C16.1969 0.419678 15.2404 1.67041 15.2404 3.21326C15.2404 4.75611 16.1969 6.00684 17.3769 6.00684Z" fill="black"/>
<path d="M5.9822 13.208C5.4362 13.9219 5.17507 14.8221 5.17507 15.7533V24.91L0.356083 31.2111C-0.118694 31.8319 -0.118694 32.8562 0.356083 33.477C0.830861 34.0978 1.61424 34.0978 2.08902 33.477L6.90801 27.1759H13.7211C14.0297 27.1759 14.3383 27.0207 14.5757 26.7103C15.0504 26.0895 15.0504 25.0652 14.5757 24.4444L5.9822 13.208ZM10.7537 23.9788H7.62018V19.8816L10.7537 23.9788Z" fill="black"/>
<path d="M32.0001 12.8356H24.9971C24.8547 11.4698 23.9526 10.4145 22.8606 10.4145H22.5283V11.625H19.0861L10.8962 0.916281C10.6826 0.636922 10.374 0.450684 10.0416 0.450684H5.12767C4.46299 0.450684 3.91699 1.1646 3.91699 2.03371C3.91699 2.90283 4.46299 3.61674 5.12767 3.61674H9.49563L11.371 6.06889L6.83687 12.0906L10.7063 17.1501L15.2879 11.1594L17.7093 14.3565C17.9467 14.6669 18.2553 14.8221 18.5639 14.8221H22.5283V16.0327H22.8606C23.9526 16.0327 24.8547 14.9773 24.9971 13.6116H32.0001V12.8356ZM23.193 15.1635V11.3146C23.8814 11.5009 24.3799 12.3079 24.3799 13.2391C24.3799 14.1703 23.8814 14.9773 23.193 15.1635Z" fill="black"/>
</svg>
