<svg width="32" height="35" viewBox="0 0 32 35" fill="none" xmlns="http://www.w3.org/2000/svg">
<path d="M31.4971 0.939537C31.1763 0.710971 30.7129 0.558594 30.2139 0.558594C29.7148 0.558594 29.2514 0.710971 28.9306 0.939537L28.1108 1.52365H2.0898C1.87592 1.52365 1.62641 1.57444 1.44818 1.65063C1.3056 1.70142 1.19867 1.75222 1.09173 1.8284L0.450116 2.28554C-0.155852 2.71727 -0.155852 3.45376 0.485762 3.8855C1.09173 4.29184 2.05415 4.26644 2.62447 3.8347L4.94141 2.15855H27.184L18.8074 8.12666C18.4509 8.38062 18.2727 8.71077 18.2727 9.04092V17.0915H26.5068V10.3615H30.1782C31.1763 10.3615 31.9961 9.77741 31.9961 9.06632V1.8792C32.0318 1.52365 31.8179 1.1935 31.4971 0.939537ZM24.5463 7.74572L28.3603 5.02833V7.74572H24.5463Z" fill="black"/>
<path d="M15.9914 7.61868C17.7632 7.61868 19.1995 6.59536 19.1995 5.33302C19.1995 4.07069 17.7632 3.04736 15.9914 3.04736C14.2196 3.04736 12.7833 4.07069 12.7833 5.33302C12.7833 6.59536 14.2196 7.61868 15.9914 7.61868Z" fill="black"/>
<path d="M18.2728 25.7008L9.64662 31.8467C8.93371 32.3546 8.93371 33.1927 9.64662 33.7006C10.3595 34.2086 11.5358 34.2086 12.2487 33.7006L21.4095 27.1738C21.766 26.9198 21.9442 26.5897 21.9442 26.2595V18.3867H18.3084L18.2728 25.7008Z" fill="black"/>
<path d="M22.871 32.761C22.871 33.4721 23.6908 34.0562 24.6889 34.0562C25.6869 34.0562 26.5068 33.4721 26.5068 32.761V18.3867H22.871V32.761Z" fill="black"/>
</svg>
