<svg width="33" height="30" viewBox="0 0 33 30" fill="none" xmlns="http://www.w3.org/2000/svg">
<path d="M6.06092 21.521L12.3811 15.6079L10.5647 13.9084L4.26936 19.8215C3.7717 20.2871 3.7717 21.0554 4.26936 21.521C4.76702 21.9866 5.56326 21.9866 6.06092 21.521Z" fill="black"/>
<path d="M12.8539 16.0269L1.0843 27.0149C0.586646 27.4805 0.586646 28.2488 1.0843 28.7144C1.58196 29.18 2.40309 29.18 2.90074 28.7144L14.6703 17.7263L12.8539 16.0269Z" fill="black"/>
<path d="M19.5971 6.62177C20.2192 6.62177 20.7666 6.38897 21.1896 6.01649C21.5877 5.64402 21.8366 5.10858 21.8366 4.52658C21.8366 3.94459 21.5877 3.43243 21.1896 3.03667C20.7915 2.6642 20.2192 2.4314 19.5971 2.4314C18.975 2.4314 18.4276 2.6642 18.0046 3.03667C17.6065 3.40915 17.3577 3.94459 17.3577 4.52658C17.3577 5.10858 17.6065 5.62074 18.0046 6.01649C18.4027 6.38897 18.975 6.62177 19.5971 6.62177Z" fill="black"/>
<path d="M31.4414 7.50644H11.6596L8.42479 4.48006C7.92714 4.01446 7.106 4.01446 6.60835 4.48006C6.11069 4.94565 6.11069 5.71389 6.60835 6.17949L10.2164 9.55506C10.4652 9.78786 10.7887 9.90426 11.1121 9.90426H14.8694L11.4854 13.0703L15.5661 16.8882L23.0061 9.92754H31.4414C32.1381 9.92754 32.7104 9.39211 32.7104 8.74027C32.7353 8.04187 32.1381 7.50644 31.4414 7.50644Z" fill="black"/>
<path d="M10.6394 0.964738C11.5102 0.964738 12.207 1.61657 12.207 2.43137C12.207 3.24616 11.5102 3.898 10.6394 3.898C9.76845 3.898 9.07174 3.24616 9.07174 2.43137C9.07174 1.61657 9.76845 0.964738 10.6394 0.964738ZM10.6394 0.336182C9.39521 0.336182 8.3999 1.26738 8.3999 2.43137C8.3999 3.59536 9.39521 4.52655 10.6394 4.52655C11.8835 4.52655 12.8788 3.59536 12.8788 2.43137C12.8788 1.26738 11.8586 0.336182 10.6394 0.336182Z" fill="black"/>
</svg>
