<svg width="32" height="34" viewBox="0 0 32 34" fill="none" xmlns="http://www.w3.org/2000/svg">
<path d="M15.6156 18.187H8.1246V25.6577L0.559032 31.1724C-0.186344 31.7157 -0.186344 32.6122 0.559032 33.1555C1.30441 33.6989 2.53428 33.6989 3.27966 33.1555L11.4043 27.2333C11.7769 26.9617 11.9633 26.6085 11.9633 26.2554V19.4638L18.6717 24.3537V32.1504C18.6717 32.911 19.5289 33.5359 20.5724 33.5359C21.6159 33.5359 22.4731 32.911 22.4731 32.1504V23.7832C22.4731 23.4029 22.2495 23.0497 21.9141 22.8053L15.6156 18.187Z" fill="black"/>
<path d="M14.833 13.2972L19.4171 9.95573C20.3488 10.0372 21.3178 9.8199 21.9886 9.30375C23.2185 8.40726 23.2185 6.96746 21.9886 6.09814C20.7588 5.20166 18.7835 5.20166 17.5909 6.09814C16.8828 6.6143 16.5847 7.29345 16.6965 7.97261L14.833 9.33091V8.0541C14.833 7.37495 14.4603 6.7773 13.864 6.31547C13.2677 5.88081 12.4105 5.60915 11.4788 5.60915C10.5471 5.60915 9.72719 5.88081 9.09362 6.31547C8.49732 6.7773 8.12463 7.40212 8.12463 8.08127V16.8016H14.833V13.2972Z" fill="black"/>
<path d="M15.3175 4.92994C17.1699 4.92994 18.6716 3.8353 18.6716 2.48499C18.6716 1.13468 17.1699 0.0400391 15.3175 0.0400391C13.465 0.0400391 11.9633 1.13468 11.9633 2.48499C11.9633 3.8353 13.465 4.92994 15.3175 4.92994Z" fill="black"/>
<path d="M31.0823 6.12524C29.8525 5.22876 27.8772 5.22876 26.6846 6.12524C25.9765 6.6414 25.6783 7.34772 25.7902 7.9997L22.1005 10.6891C21.7651 10.9336 21.5415 11.2868 21.5415 11.6671C21.5415 12.0475 21.7651 12.4006 22.1005 12.6451C22.436 12.8896 22.9204 13.0526 23.4422 13.0526C23.964 13.0526 24.4485 12.8896 24.7839 12.6451L28.4735 9.95566C29.4052 10.0372 30.3369 9.81983 31.0451 9.30368C32.3122 8.43436 32.3122 6.99456 31.0823 6.12524Z" fill="black"/>
</svg>
