<svg width="32" height="35" viewBox="0 0 32 35" fill="none" xmlns="http://www.w3.org/2000/svg">
<path d="M13.0337 15.0759L0.400625 31.3891C-0.133542 32.0788 -0.133542 33.217 0.400625 33.9067C0.934792 34.5965 1.81617 34.5965 2.35033 33.9067L7.77213 26.9055H18.8561C19.2033 26.9055 19.5505 26.7331 19.8176 26.3882C20.0847 26.0433 20.2182 25.595 20.2182 25.1466C20.2182 24.6983 20.0847 24.2499 19.8176 23.905L13.0337 15.0759ZM13.0337 20.0768L15.5443 23.3187H10.5231L13.0337 20.0768Z" fill="black"/>
<path d="M31.596 9.41983C31.0618 8.73005 30.1804 8.73005 29.6462 9.41983L27.2158 12.5583L18.5623 1.41845C18.3219 1.10806 17.9747 0.901123 17.6008 0.901123C17.2269 0.901123 16.8797 1.10806 16.6393 1.41845L12.7399 6.41931C12.2057 7.10908 12.2057 8.24721 12.7399 8.93698C13.274 9.62676 14.1554 9.62676 14.6896 8.93698L17.6008 5.17772L19.1499 7.17806L13.9952 13.7999L18.3753 19.456L23.53 12.7997L26.2543 16.3176C26.7884 17.0073 27.6698 17.0073 28.204 16.3176L31.6227 11.903C32.1301 11.2477 32.1301 10.1096 31.596 9.41983Z" fill="black"/>
<path d="M25.827 7.35054C27.1545 7.35054 28.2307 5.96084 28.2307 4.24656C28.2307 2.53228 27.1545 1.14258 25.827 1.14258C24.4994 1.14258 23.4232 2.53228 23.4232 4.24656C23.4232 5.96084 24.4994 7.35054 25.827 7.35054Z" fill="black"/>
</svg>
