<svg width="32" height="35" viewBox="0 0 32 35" fill="none" xmlns="http://www.w3.org/2000/svg">
<path d="M23.4621 20.1145H9.47266V27.1994L0.904146 31.3792C0.0298081 31.7942 -0.24998 32.7428 0.239649 33.4543C0.729279 34.1954 1.84843 34.4326 2.6878 34.0175L12.1306 29.3931C12.7252 29.0966 13.04 28.563 13.04 28.0294V23.1678H21.6434V32.6836C21.6434 33.5136 22.4478 34.1954 23.4271 34.1954C24.4064 34.1954 25.2107 33.5136 25.2107 32.6836V21.656C25.2457 20.7963 24.4413 20.1145 23.4621 20.1145Z" fill="black"/>
<path d="M31.506 7.60482C31.1563 7.30838 30.7016 7.16016 30.247 7.16016H10.417C9.96231 7.16016 9.47268 7.30838 9.12295 7.60482L1.98835 13.6818C1.28888 14.2747 1.28888 15.253 1.98835 15.8458C2.33808 16.1423 2.79274 16.2905 3.24739 16.2905H9.54263V18.6027H17.6215V10.2135H30.212C30.6666 10.2135 31.1213 10.0653 31.471 9.76883C31.8208 9.47239 31.9956 9.08702 31.9956 8.70164C32.0306 8.28663 31.8557 7.90126 31.506 7.60482ZM7.58411 13.2372L9.50766 11.6068V13.2372H7.58411Z" fill="black"/>
<path d="M13.9143 6.03367C15.6527 6.03367 17.062 4.83919 17.062 3.36571C17.062 1.89224 15.6527 0.697754 13.9143 0.697754C12.176 0.697754 10.7667 1.89224 10.7667 3.36571C10.7667 4.83919 12.176 6.03367 13.9143 6.03367Z" fill="black"/>
</svg>
