<svg width="32" height="34" viewBox="0 0 32 34" fill="none" xmlns="http://www.w3.org/2000/svg">
<path d="M5.31937 5.01936C6.71095 5.01936 7.83905 3.91306 7.83905 2.54837C7.83905 1.18369 6.71095 0.0773926 5.31937 0.0773926C3.92778 0.0773926 2.79968 1.18369 2.79968 2.54837C2.79968 3.91306 3.92778 5.01936 5.31937 5.01936Z" fill="black"/>
<path d="M9.60286 16.6604H16.742L6.69122 6.80393C6.24328 6.36464 5.59936 6.09009 4.89945 6.09009C3.49962 6.09009 2.37976 7.1883 2.37976 8.56107C2.37976 9.24745 2.65973 9.85147 3.10767 10.3182L9.60286 16.6604Z" fill="black"/>
<path d="M26.6807 30.3881C27.2406 30.9372 28.1645 30.9372 28.7244 30.3881C29.2843 29.839 29.2843 28.933 28.7244 28.3839L18.1977 18.0881H14.1102L26.6807 30.3881Z" fill="black"/>
<path d="M31.4121 31.0195C30.2082 32.2001 28.6124 32.859 26.9046 32.859C25.1969 32.859 23.6011 32.2001 22.3972 31.0195L0.531933 9.5769L0 10.0986L21.8653 31.5412C23.2091 32.859 25.0009 33.6003 26.9326 33.6003C28.8364 33.6003 30.6282 32.8865 32 31.5412L31.4121 31.0195Z" fill="black"/>
</svg>
