<svg width="26" height="32" viewBox="0 0 26 32" fill="none" xmlns="http://www.w3.org/2000/svg">
<path fill-rule="evenodd" clip-rule="evenodd" d="M22.1775 3.64962C17.1043 -1.21654 8.89573 -1.21654 3.82259 3.64962C-0.867546 8.1484 -1.29659 15.3271 2.83919 20.3142L12.2303 31.6383C12.4202 31.8674 12.7024 32 13 32C13.2976 32 13.5798 31.8674 13.7698 31.6383L23.1609 20.3142C27.2966 15.3271 26.8676 8.14841 22.1775 3.64962ZM5.20705 5.09297C9.50643 0.969009 16.4936 0.96901 20.793 5.09297C24.7322 8.87142 25.0827 14.8636 21.6214 19.0375L13 29.4335L4.37868 19.0375C0.917338 14.8636 1.26789 8.87142 5.20705 5.09297ZM10 12C10 10.3431 11.3432 9 13 9C14.6569 9 16 10.3431 16 12C16 13.6569 14.6569 15 13 15C11.3432 15 10 13.6569 10 12ZM13 7C10.2386 7 8.00004 9.23858 8.00004 12C8.00004 14.7614 10.2386 17 13 17C15.7614 17 18 14.7614 18 12C18 9.23858 15.7614 7 13 7Z" fill="#7E7E7E"/>
</svg>
