<svg width="25" height="32" viewBox="0 0 25 32" fill="none" xmlns="http://www.w3.org/2000/svg">
<path d="M12.5065 31C10.9608 31 9.81206 29.9268 9.68015 28.7025H15.3329C15.201 29.9268 14.0522 31 12.5065 31Z" stroke="white" stroke-width="2"/>
<path d="M13.9997 4.68975V5.48379L14.7731 5.66373C18.7864 6.5975 21.6736 9.91566 21.6736 13.7489V18.6378C21.6736 19.9126 22.0468 21.1678 22.7532 22.2587C22.7535 22.2592 22.7538 22.2597 22.7541 22.2602L23.8468 23.9599L23.8488 23.9629C24.0472 24.2691 24.0501 24.6074 23.859 24.9167L23.859 24.9167C23.6595 25.2395 23.2853 25.462 22.8096 25.462H2.19039C1.71473 25.462 1.34052 25.2395 1.14099 24.9167C0.94988 24.6074 0.952822 24.2691 1.15124 23.9629L1.1516 23.9623L2.25081 22.2632C2.25124 22.2625 2.25168 22.2619 2.25211 22.2612C2.96112 21.1746 3.33973 19.9205 3.33973 18.6378V13.7489C3.33973 9.91533 6.22299 6.59928 10.2405 5.66368L11.0137 5.48362V4.68975V2.2941C11.0137 1.65847 11.6049 1 12.5067 1C13.4085 1 13.9997 1.65847 13.9997 2.2941V4.68975Z" stroke="white" stroke-width="2"/>
</svg>
