<svg width="27" height="32" viewBox="0 0 27 32" fill="none" xmlns="http://www.w3.org/2000/svg">
<path d="M13.2245 17.6521H13.2242C10.2595 17.6489 7.38418 18.667 5.08202 20.5351L5.0818 20.5352C3.96219 21.4416 2.99986 22.5265 2.23358 23.7463L2.2335 23.7464C1.05288 25.6232 0.376723 27.7731 0.270461 29.9878L13.2245 17.6521ZM13.2245 17.6521C13.412 17.6521 13.5996 17.6549 13.7871 17.6605C17.1126 17.8042 20.2554 19.2212 22.5649 21.6182C24.8748 24.0156 26.174 27.2096 26.1935 30.5387L26.1934 30.5387L26.1937 30.5465C26.2053 30.8604 26.0925 31.1662 25.8799 31.3974C25.774 31.5083 25.6469 31.5967 25.506 31.6572C25.3647 31.718 25.2125 31.7496 25.0587 31.75C25.0586 31.75 25.0584 31.75 25.0583 31.75L1.38724 31.75H1.38696C1.16002 31.7502 0.938248 31.6822 0.750494 31.5547C0.562741 31.4272 0.417693 31.2462 0.334214 31.0351L0.334197 31.0351M13.2245 17.6521L0.334197 31.0351M0.334197 31.0351C0.229431 30.7704 0.245121 30.4729 0.263564 30.1232M0.334197 31.0351L0.263564 30.1232M0.263564 30.1232C0.265896 30.079 0.268273 30.0339 0.270456 29.9879L0.263564 30.1232ZM2.61456 29.2035L2.57687 29.4865H2.86237H23.5876H23.8726L23.8354 29.2039C23.8029 28.9566 23.7615 28.7108 23.7114 28.4668L23.7114 28.4666C23.3551 26.7381 22.577 25.1245 21.4465 23.7693C20.3159 22.4141 18.8679 21.3594 17.2313 20.699C15.5947 20.0386 13.8203 19.793 12.0658 19.984C10.3113 20.1749 8.63128 20.7966 7.1751 21.7937L7.17466 21.794C6.36079 22.3539 5.62758 23.0227 4.99553 23.7819C3.70583 25.328 2.88033 27.2077 2.61456 29.2035Z" fill="#7E7E7E" stroke="white" stroke-width="0.5"/>
<path d="M21.0285 8.01694C21.0271 6.00764 20.2475 4.07698 18.8535 2.62996C17.4594 1.18293 15.5591 0.331989 13.5513 0.255622C11.5434 0.179255 9.58401 0.8834 8.08406 2.22035C6.58411 3.5573 5.66017 5.42317 5.50607 7.42655C5.35196 9.42994 5.97966 11.4152 7.25749 12.9658C8.53532 14.5164 10.364 15.512 12.3599 15.7436C14.3558 15.9752 16.3639 15.4249 17.9628 14.2081C19.5618 12.9913 20.6274 11.2026 20.9362 9.21724L21.0285 8.01694ZM21.0285 8.01694C21.0287 8.41878 20.9978 8.82004 20.9362 9.21714L21.0285 8.01694ZM9.23386 4.19224C8.3015 5.15917 7.75573 6.43064 7.69354 7.76675H7.68282L7.68376 8.01769C7.68484 8.30462 7.70816 8.59103 7.75353 8.87435C7.9734 10.2838 8.73039 11.5534 9.86579 12.4169C11.0013 13.2806 12.4272 13.671 13.8443 13.5064C15.2614 13.3417 16.5598 12.6347 17.467 11.5337C18.3743 10.4327 18.82 9.02318 18.7107 7.60071C18.6014 6.17824 17.9456 4.85334 16.8808 3.90385C15.816 2.95436 14.4249 2.45404 12.9992 2.5078C11.5736 2.56157 10.2241 3.16525 9.23386 4.19224Z" fill="#7E7E7E" stroke="white" stroke-width="0.5"/>
</svg>
